<?xml version="1.0" encoding="utf-8" ?>
<svg xmlns="http://www.w3.org/2000/svg" xmlns:xlink="http://www.w3.org/1999/xlink" width="1022" height="1024">
	<path transform="scale(1.97303 1.97303)" d="M96.2658 174.33C89.1247 175.2 82.4596 174.783 76.6405 170.213C74.5108 168.54 72.7924 166.461 71.138 164.331C64.557 155.86 62.9965 148.306 61.82 137.84C61.2445 132.72 60.952 124.832 62.4446 119.954C63.2637 117.278 64.7883 115.007 65.3903 112.199C65.9053 109.797 65.7501 107.276 66.023 104.84C67.1561 94.7275 69.091 91.2442 75.4014 83.4077C77.5747 80.7089 79.818 77.8117 82.3707 75.4664C91.496 67.0824 105.473 61.0269 117.727 59.7291C124.013 59.0633 130.682 60.9 135.593 64.9177C139.205 67.8717 142.645 71.6157 145.898 74.9789C147.04 76.1594 148.106 77.7121 149.386 78.6951C152.709 77.0447 155.552 73.5351 158.61 71.3427C164.479 67.1358 170.669 63.2868 176.749 59.4014C179.736 57.4928 182.548 55.3558 185.605 53.5474C217.26 34.8189 246.152 31.3824 282.269 33.8564C294.584 34.7 307.143 35.9732 318.884 39.9333C326.49 42.4988 330.552 45.8381 336.722 50.6162C339.155 52.5011 341.72 54.2259 343.798 56.5261C346.094 59.068 347.663 62.4395 350.217 64.6991C351.641 65.9578 353.655 66.6299 355.26 67.6741C358.124 69.5368 360.898 71.7916 363.518 73.984C383.308 90.2912 399.5 110.526 411.07 133.411C413.734 138.8 415.67 144.478 417.313 150.246C418.112 153.051 419.048 155.91 419.646 158.762C420.17 161.261 420.36 163.904 420.615 166.445C421.94 179.688 420.208 191.299 416.023 203.878C412.101 215.665 405.172 227.267 396.962 236.564C394.912 238.887 392.634 241.066 390.448 243.263C386.953 246.777 382.859 250.76 378.405 253.02C378.129 253.16 377.885 253.202 377.585 253.259L377.123 253.019C376.987 252.496 376.906 252.37 377.188 251.869C377.961 250.497 380.09 249.134 381.252 248.056C385.593 244.031 390.304 238.177 391.482 232.221L391.304 231.963C390.507 232.308 389.444 232.306 389.096 232.488C388.941 233.362 388.78 234.235 388.613 235.107L388.254 235.029C387.67 233.549 388.938 232.329 388.489 231.112L388.095 230.992C385.766 233.312 382.027 240.93 378.888 242.196L378.431 242.021C376.996 238.734 387.382 214.24 384.684 205.079C383.434 200.834 379.808 197.277 377.725 193.387C375.748 189.695 374.107 185.855 372.334 182.066C369.443 175.89 366.523 169.763 363.415 163.693C362.562 162.029 358.486 155.559 358.506 154.355C358.513 153.945 358.508 153.535 358.516 153.125L358.224 152.856C356.936 153.543 354.594 159.818 353.716 161.433C352.871 162.987 351.818 164.477 350.788 165.912C342.747 177.12 333.675 186.828 321.38 193.411C317.877 195.286 314.234 197.487 310.106 197.326L309.874 197.128C310.325 195.466 318.985 190.594 320.857 188.968C325.447 184.983 331.027 179.239 333.921 173.934C335.696 170.679 337.789 163.075 338.457 159.384C340.312 149.132 338.965 141.733 339.033 131.757C336.974 135.836 334.04 139.739 331.422 143.486C321.419 157.8 310.077 170.312 296.879 181.746C294.232 184.039 291.619 186.452 288.836 188.576C286.87 190.078 284.691 191.287 282.687 192.737C280.286 194.475 278.039 196.574 275.554 198.175C273.755 199.334 271.719 200.2 269.838 201.228C266.824 202.876 263.916 204.718 260.906 206.373C258.229 207.844 255.499 209.058 252.949 210.759C250.875 212.143 245.729 213.699 243.24 213.951L242.836 213.723C243.109 212.803 244.253 212.027 245.016 211.461C247.842 209.365 251.054 207.763 253.957 205.754C256.912 203.71 276.611 189.114 275.304 185.84C274.541 186.072 273.984 186.74 273.319 187.173C273.128 186.564 273.303 186.067 273.419 185.452C272.868 185.516 272.764 185.753 272.364 186.116C272.252 186.765 272.263 186.853 272.667 187.429C272.921 187.792 273.277 188.129 273.581 188.454L273.444 188.767C272.528 188.823 271.944 187.974 271.141 188.268C268.556 189.216 260.562 195.121 257.775 196.975C253.497 199.819 249.025 202.438 244.62 205.083C239.889 207.924 234.96 210.382 230.213 213.183C226.086 215.618 222.18 218.376 217.993 220.723C213.945 222.993 209.708 224.684 205.75 227.167C203.397 228.644 201.352 230.556 199.525 232.64C196.124 236.519 192.463 242.058 191.642 247.258C191.126 250.528 191.32 254.199 191.341 257.509C191.367 261.834 191.384 266.175 191.69 270.491C191.93 273.878 192.088 277.272 192.426 280.652C190.524 280.991 184.721 279.383 182.961 278.389C181.75 277.705 180.563 275.926 179.688 274.826C177.701 272.324 175.967 269.788 174.501 266.939C169.977 258.143 167.105 246.193 158.095 240.832C157.069 240.221 155.378 239.334 154.154 239.541C153.87 239.589 153.591 239.657 153.312 239.727C152.968 239.393 152.818 239.144 152.587 238.731L152.071 238.539C151.49 239.161 152.062 239.781 151.195 239.918C150.546 239.254 150.759 238.483 150.039 237.997C148.457 238.358 147.397 240.292 145.785 240.795C145.431 240.431 145.405 240.176 145.468 239.652C145.666 238.016 147.684 236.557 148.966 235.781C151.933 233.985 154.63 233.3 158.027 234.16C160.601 234.811 162.997 235.773 165.339 237.016C163.771 233.45 159.802 229.543 156.164 228.05C153.737 227.054 151.107 226.96 148.525 226.804C143.597 231.217 140.574 235.665 140.169 242.468C139.965 245.913 140.612 249.118 141.886 252.31C145.14 260.462 153.97 270.969 159.969 277.639C164.381 282.545 170.865 288.995 177.419 290.727C180.004 291.41 182.736 291.308 185.223 292.314C185.338 292.361 185.456 292.401 185.572 292.446C185.642 292.472 185.711 292.501 185.781 292.529C185.821 292.624 185.863 292.719 185.903 292.815C187.732 297.295 188.178 305.942 190.863 309.342C193.463 312.633 199.616 315.311 203.236 317.427C226.396 331.128 250.382 343.381 275.057 354.116C281.301 356.816 287.71 359.032 294.089 361.37C299.82 363.47 306.264 366.286 312.365 366.934C316.116 367.332 320.636 366.768 324.129 365.377C324.324 365.3 324.518 365.219 324.711 365.135C319.574 369.66 315.305 373.172 308.058 372.672C301.111 372.192 294.466 369.077 287.709 367.536C287.813 371.057 289.519 392.938 290.343 394.736C293.11 396.17 302.261 392.505 305.069 394.656C308.367 397.181 310.668 401.914 313.329 405.141C322.285 408.26 330.839 412.292 339.484 416.169L360.552 425.412L401.358 443.122C409.909 446.885 418.344 450.858 426.842 454.724L458.355 468.767C463.192 470.944 468.32 472.765 472.791 475.674C476.618 478.165 479.014 481.925 482.223 485.04C484.817 487.557 487.733 489.606 490.026 492.444C491.784 494.622 493.091 497.12 494.302 499.632C497.366 505.988 496.709 511.689 496.638 518.577C496.291 518.761 496.317 518.766 495.955 518.887C494.547 519.357 476.52 518.998 472.873 518.998L393.197 519L6.47685 519C5.40987 518.993 4.47044 519.076 3.50232 518.571C3.56598 515.404 4.41081 512.263 5.10357 509.185C7.05895 500.497 9.23198 490.507 15.886 484.089C17.1222 482.873 18.5349 481.852 20.0763 481.059C22.9506 479.612 25.9793 478.406 28.9144 477.083C33.7997 474.895 38.6434 472.616 43.4427 470.246L122.3 431.583L155.376 415.454C160.571 412.922 166.699 409.223 172.165 407.58C172.72 408.996 173.199 410.399 174.16 411.6L174.338 411.556C173.758 409.929 172.881 408.085 172.904 406.348C172.933 404.136 173.785 401.564 174.239 399.394C175.224 394.688 176.214 389.924 177.081 385.196C178.377 378.132 179.623 371.01 180.735 363.912C181.113 361.499 181.225 359.03 181.661 356.636L181.349 356.521C177.728 358.632 176.82 361.472 174.111 363.755C173.687 364.113 173.698 364.145 173.144 364.019C172.684 362.776 173.135 361.378 173.383 360.118C171.19 359.577 170.255 358.022 169.747 357.968C169.242 358.766 168.961 359.504 168.01 359.745C167.564 359.059 167.888 358.514 167.342 357.929C166.853 358.213 166.723 358.466 166.469 358.962C166.612 359.58 166.834 360.043 167.118 360.604C166.879 361.113 166.877 361.118 166.374 361.368C165.864 361.156 165.602 360.828 165.236 360.426L164.68 360.538C164.393 361.098 164.207 361.628 164.016 362.224C163.711 362.49 163.462 362.728 163.099 362.911L162.779 362.841L163.31 361.469C162.921 361.366 162.362 361.823 162.021 362.022C160.979 362.63 160.094 363.516 159.026 364.07C158.271 364.461 157.396 364.601 156.649 364.995C156.35 365.152 156.15 365.399 155.906 365.625C155.698 365.817 155.478 365.997 155.265 366.183L154.979 366.135C154.567 363.117 157.462 363.999 154.949 359.464C155.372 358.831 155.941 358.972 156.359 358.214C158.205 354.869 157.369 348.284 156.638 344.7C156.307 343.078 155.714 341.096 154.224 340.162C153.591 339.765 152.397 339.556 151.672 339.85C150.634 340.271 143.363 346.079 141.274 347.397C139.511 347.498 137.577 347.694 135.905 347.036L135.581 346.549C135.642 346.453 135.705 346.359 135.766 346.262C136.101 345.724 136.112 345.542 136.068 344.94C135.926 342.989 137.239 340.595 137.346 338.277C137.654 331.595 135.93 324.834 134.46 318.358C134.104 316.794 132.757 313.062 133.194 311.767L133.966 311.282L133.821 310.694L133.531 310.664L132.803 311.334L132.471 311.241C132.194 310.642 131.952 310.246 132.168 309.574C132.419 308.789 132.91 308.23 132.778 307.365L132.391 306.927L132.088 307.054C132.072 307.708 132.208 308.435 131.819 308.967C131.193 308.375 131.111 307.38 130.93 306.563L130.596 306.452C129.043 307.671 128.082 311.013 126.13 311.471C125.776 311.334 125.57 311.353 125.388 310.989C125.166 310.545 125.136 310.213 125.06 309.735C124.8 308.082 123.391 307.385 122.778 305.783C121.537 302.541 120.606 299.139 119.476 295.851C117.622 290.46 115.596 285.25 113.41 279.989C109.833 271.38 106.185 262.554 103.23 253.709C97.1745 235.58 93.4454 214.585 94.1041 195.423C94.3477 188.338 95.3588 181.35 96.2658 174.33Z"/>
</svg>
